# xmcd
#
# Track frame offsets:
#	150
#	15607
#	37569
#	60113
#	99947
#	114411
#	143339
#	159150
#	184795
#	205720
#	231659
#
# Disc length: 3572 seconds
# Revision: 0
# Processed by: cddbd v1.5.2PL0 Copyright (c) Steve Scherf et al.
# Submitted via: dBpowerAMP V12.0
#
DISCID=740df20b
DTITLE=Paul Filipowicz - Roughneck Blues 
DYEAR=2015
DGENRE=Blues
TTITLE0=Gambling Woman
TTITLE1=Most Dogs
TTITLE2=Black Spider
TTITLE3=Santa Fe Windows
TTITLE4=Junk In The Trunk
TTITLE5=Jackson Transfer
TTITLE6=Midnight At The Nairobi Room
TTITLE7=Chicken Wire
TTITLE8=Your True Lovin'
TTITLE9=Hootin' And Hollerin'
TTITLE10=Where The Blues Come From
EXTD=
EXTT0=
EXTT1=
EXTT2=
EXTT3=
EXTT4=
EXTT5=
EXTT6=
EXTT7=
EXTT8=
EXTT9=
EXTT10=
PLAYORDER=
